<svg width="50" height="60" viewBox="0 0 50 60" fill="none" xmlns="http://www.w3.org/2000/svg">
<g clip-path="url(#clip0_229_82)">
<path d="M50 1.67541e-06L30.9324 0C20.2214 -9.41138e-07 11.5385 8.72704 11.5385 19.4924V27.0598H30.6061C41.317 27.0598 50 18.3327 50 7.56737V1.67541e-06Z" fill="#007BFF"/>
<path d="M50 1.67541e-06L30.9324 0C20.2214 -9.41138e-07 11.5385 8.72704 11.5385 19.4924V27.0598H30.6061C41.317 27.0598 50 18.3327 50 7.56737V1.67541e-06Z" fill="#007BFF"/>
<path d="M43.6697 4.40796H29.874C23.1907 4.40796 17.7728 9.85334 17.7728 16.5705C17.7728 19.9292 20.4818 22.6519 23.8234 22.6519H26.4051C35.94 22.6519 43.6697 14.883 43.6697 5.29967V4.40796Z" fill="white"/>
<path d="M11.5385 32.8584H32.0512C41.9639 32.8584 50 40.9349 50 50.898C50 55.8798 45.9821 59.9181 41.0258 59.9181H30.9324C20.2214 59.9181 11.5385 51.191 11.5385 40.4257V32.8584Z" fill="#007BFF"/>
<path d="M11.5385 32.8584H30.6061C41.317 32.8584 50 41.5852 50 52.3508V59.9181H30.9324C20.2214 59.9181 11.5385 51.191 11.5385 40.4257V32.8584Z" fill="#007BFF"/>
<path d="M43.7655 55.5101H29.9699C23.2866 55.5101 17.8688 50.0647 17.8688 43.3474C17.8688 39.989 20.5777 37.2661 23.9194 37.2661H26.5011C36.0361 37.2661 43.7655 45.035 43.7655 54.6183V55.5101Z" fill="white"/>
<path d="M0 59.9181C3.18624 59.9181 5.76924 57.3219 5.76924 54.1194V5.79852C5.76924 2.59608 3.18624 0 0 0V59.9181Z" fill="#007BFF"/>
</g>
<defs>
<clipPath id="clip0_229_82">
<rect width="50" height="60" fill="white"/>
</clipPath>
</defs>
</svg>
